<?xml version="1.0" encoding="UTF-8" standalone="no"?>
<svg
   xmlns:dc="http://purl.org/dc/elements/1.1/"
   xmlns:cc="http://creativecommons.org/ns#"
   xmlns:rdf="http://www.w3.org/1999/02/22-rdf-syntax-ns#"
   xmlns:svg="http://www.w3.org/2000/svg"
   xmlns="http://www.w3.org/2000/svg"
   xmlns:xlink="http://www.w3.org/1999/xlink"
   version="1.1"
   id="svg4268"
   viewBox="0 0 22 22"
   height="22"
   width="22">
  <defs
     id="defs4270">
    <linearGradient
       id="linearGradient4249">
      <stop
         id="stop4251"
         offset="0"
         style="stop-color:#ffffff;stop-opacity:1;" />
      <stop
         style="stop-color:#ffffff;stop-opacity:0.78431374;"
         offset="0.47000003"
         id="stop4253" />
      <stop
         id="stop4255"
         offset="0.75125003"
         style="stop-color:#ffffff;stop-opacity:0.39215687;" />
      <stop
         id="stop4257"
         offset="1"
         style="stop-color:#ffffff;stop-opacity:1;" />
    </linearGradient>
    <linearGradient
       y2="116.5"
       x2="157"
       y1="116.5"
       x1="137"
       gradientTransform="matrix(0.70236364,0,0,0.70238095,-88.979455,-74.452381)"
       gradientUnits="userSpaceOnUse"
       id="linearGradient4651"
       xlink:href="#linearGradient4249" />
    <linearGradient
       y2="116.5"
       x2="157"
       y1="116.5"
       x1="137"
       gradientTransform="matrix(0.70238095,0,0,0.70238095,-95.523809,-67.202381)"
       gradientUnits="userSpaceOnUse"
       id="linearGradient5006"
       xlink:href="#linearGradient4249" />
    <linearGradient
       y2="116.5"
       x2="157"
       y1="116.5"
       x1="137"
       gradientTransform="matrix(0.70236364,0,0,0.70238095,-88.979455,-74.452381)"
       gradientUnits="userSpaceOnUse"
       id="linearGradient5066"
       xlink:href="#linearGradient4249" />
    <linearGradient
       gradientTransform="matrix(0.9743255,0,0,0.9743255,5.5404775,5.5404852)"
       gradientUnits="userSpaceOnUse"
       xlink:href="#linearGradient5826"
       id="linearGradient3292"
       y2="-15.688621"
       x2="58.743717"
       y1="78.411346"
       x1="58.743717" />
    <linearGradient
       id="linearGradient5826">
      <stop
         style="stop-color:#810000;stop-opacity:1;"
         offset="0"
         id="stop5828" />
      <stop
         style="stop-color:#c50000;stop-opacity:1;"
         offset="1"
         id="stop5830" />
    </linearGradient>
    <clipPath
       clipPathUnits="userSpaceOnUse"
       id="clipPath3559">
      <path
         id="path3561"
         d="m -64.510272,10.75 c -1.042316,0.0084 -2.040208,0.423209 -2.78125,1.15625 L -84.260272,28.875 c -1.561474,1.562119 -1.561474,4.094131 0,5.65625 L -58.822772,60 l -25.4375,25.46875 c -1.561474,1.562119 -1.561474,4.094131 0,5.65625 l 16.96875,16.96875 c 1.562119,1.56147 4.094131,1.56147 5.65625,0 l 25.46875,-25.4375 25.46875,25.4375 c 1.5621191,1.56147 4.0941311,1.56147 5.6562501,0 L 11.927228,91.125 c 1.56147,-1.562119 1.56147,-4.094131 0,-5.65625 L -13.510272,60 11.927228,34.53125 c 1.56147,-1.562119 1.56147,-4.094131 0,-5.65625 L -5.0415219,11.90625 c -1.562119,-1.561474 -4.094131,-1.561474 -5.6562501,0 l -25.46875,25.4375 -25.46875,-25.4375 c -0.764077,-0.756011 -1.800247,-1.172731 -2.875,-1.15625 z m 31.1875,63.40625 c -0.751409,-0.759464 -1.775386,-1.18681 -2.84375,-1.18681 -1.068364,0 -2.092341,0.427346 -2.84375,1.18681 l 5.6875,0 z"
         style="fill:url(#linearGradient3563);fill-opacity:1;stroke:none" />
    </clipPath>
    <filter
       id="filter3549"
       height="1.2960713"
       y="-0.14803563"
       width="1.2328371"
       x="-0.11641854"
       style="color-interpolation-filters:sRGB">
      <feGaussianBlur
         id="feGaussianBlur3551"
         stdDeviation="2.5695681" />
    </filter>
    <linearGradient
       gradientTransform="scale(1.0975951,0.9110828)"
       gradientUnits="userSpaceOnUse"
       xlink:href="#linearGradient3499"
       id="linearGradient3294"
       y2="14.856744"
       x2="31.500689"
       y1="14.856744"
       x1="26.091133" />
    <linearGradient
       id="linearGradient3499">
      <stop
         id="stop3501"
         offset="0"
         style="stop-color:#ffffff;stop-opacity:1;" />
      <stop
         id="stop3503"
         offset="1"
         style="stop-color:#ffffff;stop-opacity:0;" />
    </linearGradient>
    <filter
       id="filter3477"
       height="1.2774813"
       y="-0.13874064"
       width="1.279832"
       x="-0.13991599"
       style="color-interpolation-filters:sRGB">
      <feGaussianBlur
         id="feGaussianBlur3479"
         stdDeviation="0.28784801" />
    </filter>
    <linearGradient
       gradientTransform="scale(1.0975951,0.9110828)"
       gradientUnits="userSpaceOnUse"
       xlink:href="#linearGradient3489"
       id="linearGradient3296"
       y2="14.856744"
       x2="31.500689"
       y1="14.856744"
       x1="26.091133" />
    <linearGradient
       id="linearGradient3489">
      <stop
         id="stop3491"
         offset="0"
         style="stop-color:#765c44;stop-opacity:1;" />
      <stop
         id="stop3493"
         offset="1"
         style="stop-color:#765c44;stop-opacity:0;" />
    </linearGradient>
    <filter
       id="filter5154"
       height="1.2774813"
       y="-0.13874064"
       width="1.279832"
       x="-0.13991599"
       style="color-interpolation-filters:sRGB">
      <feGaussianBlur
         id="feGaussianBlur5156"
         stdDeviation="0.28784801" />
    </filter>
    <linearGradient
       gradientUnits="userSpaceOnUse"
       xlink:href="#linearGradient3489"
       id="linearGradient3298"
       y2="384.62384"
       x2="345.62039"
       y1="385.86127"
       x1="304.88663" />
    <filter
       id="filter5165"
       height="1.2774813"
       y="-0.13874064"
       width="1.279832"
       x="-0.13991599"
       style="color-interpolation-filters:sRGB">
      <feGaussianBlur
         id="feGaussianBlur5167"
         stdDeviation="0.28784801" />
    </filter>
    <linearGradient
       gradientTransform="matrix(0.9743255,0,0,0.9743255,5.5404775,5.5404852)"
       gradientUnits="userSpaceOnUse"
       xlink:href="#linearGradient5433"
       id="linearGradient3301"
       y2="36.655769"
       x2="55.007042"
       y1="88.460976"
       x1="55.007042" />
    <linearGradient
       id="linearGradient5433">
      <stop
         id="stop5435"
         offset="0"
         style="stop-color:#ff0000;stop-opacity:1;" />
      <stop
         id="stop5437"
         offset="1"
         style="stop-color:#7f0000;stop-opacity:1;" />
    </linearGradient>
    <linearGradient
       spreadMethod="reflect"
       gradientTransform="translate(56.7,0)"
       gradientUnits="userSpaceOnUse"
       xlink:href="#linearGradient3366"
       id="linearGradient3304"
       y2="13.510336"
       x2="34.875107"
       y1="13.510336"
       x1="31.90625" />
    <linearGradient
       id="linearGradient3366">
      <stop
         style="stop-color:#ff8787;stop-opacity:1;"
         offset="0"
         id="stop3368" />
      <stop
         style="stop-color:#ff8787;stop-opacity:0;"
         offset="1"
         id="stop4472" />
    </linearGradient>
    <filter
       id="filter5177"
       height="1.2774813"
       y="-0.13874064"
       width="1.279832"
       x="-0.13991599"
       style="color-interpolation-filters:sRGB">
      <feGaussianBlur
         id="feGaussianBlur5179"
         stdDeviation="0.28784801" />
    </filter>
    <radialGradient
       xlink:href="#linearGradient3575"
       id="radialGradient8067"
       gradientUnits="userSpaceOnUse"
       gradientTransform="matrix(0.4576062,0,0,0.782313,-19.847694,18.82067)"
       cx="-36.592777"
       cy="90.072952"
       fx="-36.592777"
       fy="90.072952"
       r="25.986174" />
    <linearGradient
       id="linearGradient3575">
      <stop
         style="stop-color:#000000;stop-opacity:1;"
         offset="0"
         id="stop3577" />
      <stop
         style="stop-color:#000000;stop-opacity:0;"
         offset="1"
         id="stop3579" />
    </linearGradient>
    <clipPath
       clipPathUnits="userSpaceOnUse"
       id="clipPath5185">
      <path
         id="path5187"
         d="m -64.510272,10.75 c -1.042316,0.0084 -2.040208,0.423209 -2.78125,1.15625 L -84.260272,28.875 c -1.561474,1.562119 -1.561474,4.094131 0,5.65625 L -58.822772,60 l -25.4375,25.46875 c -1.561474,1.562119 -1.561474,4.094131 0,5.65625 l 16.96875,16.96875 c 1.562119,1.56147 4.094131,1.56147 5.65625,0 l 25.46875,-25.4375 25.46875,25.4375 c 1.5621191,1.56147 4.0941311,1.56147 5.6562501,0 L 11.927228,91.125 c 1.56147,-1.562119 1.56147,-4.094131 0,-5.65625 L -13.510272,60 11.927228,34.53125 c 1.56147,-1.562119 1.56147,-4.094131 0,-5.65625 L -5.0415219,11.90625 c -1.562119,-1.561474 -4.094131,-1.561474 -5.6562501,0 l -25.46875,25.4375 -25.46875,-25.4375 c -0.764077,-0.756011 -1.800247,-1.172731 -2.875,-1.15625 z m 31.1875,63.40625 c -0.751409,-0.759464 -1.775386,-1.18681 -2.84375,-1.18681 -1.068364,0 -2.092341,0.427346 -2.84375,1.18681 l 5.6875,0 z"
         style="fill:url(#linearGradient3563);fill-opacity:1;stroke:none" />
    </clipPath>
    <filter
       id="filter5189"
       height="1.2960713"
       y="-0.14803563"
       width="1.2328371"
       x="-0.11641854"
       style="color-interpolation-filters:sRGB">
      <feGaussianBlur
         id="feGaussianBlur5191"
         stdDeviation="2.5695681" />
    </filter>
    <linearGradient
       spreadMethod="reflect"
       gradientTransform="translate(-0.3,0)"
       gradientUnits="userSpaceOnUse"
       xlink:href="#linearGradient3207"
       id="linearGradient3310"
       y2="13.510336"
       x2="34.875107"
       y1="13.510336"
       x1="31.90625" />
    <linearGradient
       id="linearGradient3207">
      <stop
         style="stop-color:#ffffff;stop-opacity:1;"
         offset="0"
         id="stop3209" />
      <stop
         style="stop-color:#252525;stop-opacity:0;"
         offset="1"
         id="stop3211" />
    </linearGradient>
    <filter
       id="filter5197"
       height="1.2774813"
       y="-0.13874064"
       width="1.279832"
       x="-0.13991599"
       style="color-interpolation-filters:sRGB">
      <feGaussianBlur
         id="feGaussianBlur5199"
         stdDeviation="0.28784801" />
    </filter>
    <linearGradient
       spreadMethod="reflect"
       gradientTransform="translate(56.7,0)"
       gradientUnits="userSpaceOnUse"
       xlink:href="#linearGradient3207"
       id="linearGradient3312"
       y2="13.510336"
       x2="34.875107"
       y1="13.510336"
       x1="31.90625" />
    <filter
       id="filter5208"
       height="1.2774813"
       y="-0.13874064"
       width="1.279832"
       x="-0.13991599"
       style="color-interpolation-filters:sRGB">
      <feGaussianBlur
         id="feGaussianBlur5210"
         stdDeviation="0.28784801" />
    </filter>
    <linearGradient
       gradientUnits="userSpaceOnUse"
       xlink:href="#linearGradient3163"
       id="linearGradient3314"
       y2="55.07938"
       x2="57.434441"
       y1="92.973083"
       x1="59.999996" />
    <linearGradient
       id="linearGradient3163">
      <stop
         style="stop-color:#fff5e4;stop-opacity:1;"
         id="stop3165"
         offset="0" />
      <stop
         style="stop-color:#ffecd0;stop-opacity:1;"
         id="stop3173"
         offset="0.25" />
      <stop
         style="stop-color:#ffd390;stop-opacity:1;"
         id="stop3171"
         offset="0.5" />
      <stop
         style="stop-color:#ffc46a;stop-opacity:1;"
         id="stop3167"
         offset="1" />
    </linearGradient>
    <filter
       id="filter3354"
       style="color-interpolation-filters:sRGB">
      <feGaussianBlur
         id="feGaussianBlur3356"
         stdDeviation="0.45754832" />
    </filter>
    <linearGradient
       gradientTransform="matrix(1.381268,0,0,0.6872743,5.5404775,5.5404852)"
       gradientUnits="userSpaceOnUse"
       xlink:href="#linearGradient3397"
       id="linearGradient3316"
       y2="32.750854"
       x2="51.544849"
       y1="109.97649"
       x1="68.313011" />
    <linearGradient
       id="linearGradient3397">
      <stop
         id="stop3399"
         offset="0"
         style="stop-color:#f4f5f8;stop-opacity:1;" />
      <stop
         id="stop3401"
         offset="1"
         style="stop-color:#fdfdfe;stop-opacity:1;" />
    </linearGradient>
    <linearGradient
       gradientTransform="matrix(0.9743255,0,0,0.9743255,5.5404775,5.5404852)"
       gradientUnits="userSpaceOnUse"
       xlink:href="#linearGradient3366"
       id="linearGradient3318"
       y2="70.357269"
       x2="47.264141"
       y1="21.738457"
       x1="47.264141" />
    <linearGradient
       y2="20.362558"
       x2="56.770992"
       y1="71.824867"
       x1="57.654171"
       gradientTransform="matrix(0.9743255,0,0,0.9743255,5.5526549,6.7583898)"
       gradientUnits="userSpaceOnUse"
       id="linearGradient3605"
       xlink:href="#linearGradient3499" />
  </defs>
  <metadata
     id="metadata4273">
    <rdf:RDF>
      <cc:Work
         rdf:about="">
        <dc:format>image/svg+xml</dc:format>
        <dc:type
           rdf:resource="http://purl.org/dc/dcmitype/StillImage" />
        <dc:title></dc:title>
      </cc:Work>
    </rdf:RDF>
  </metadata>
  <g
     id="layer1">
    <g
       style="opacity:0.33"
       id="g4189">
      <path
         style="fill:#000000;fill-opacity:0.15846994;stroke:none"
         d="m 9.3515625,2.8085938 0,4.4414062 3.9941405,0 c 1.118031,0.00735 1.958838,0.8972794 2.082297,1.8808594 l 3.755594,0 0,-6.3222656 z"
         id="rect4679-9-2" />
      <path
         style="fill:url(#linearGradient5066);fill-opacity:1;stroke:none"
         d="m 15.453125,12.642578 0,1.404297 0.921875,0 c 0.389109,0 0.703125,-0.312053 0.703125,-0.701172 0,-0.389119 -0.314016,-0.703125 -0.703125,-0.703125 l -0.921875,0 z"
         id="path4842" />
      <path
         style="fill:url(#linearGradient4651);fill-opacity:1;stroke:none"
         d="m 8.6484375,0.703125 c -0.7782189,0 -1.4042969,0.6260588 -1.4042969,1.4042969 l 0,5.1425781 1.4042969,0 0,-5.1425781 11.2382815,0 0,7.7265625 -4.433594,0 0,1.4042966 4.433594,0 c 0.778219,0 1.404297,-0.626059 1.404297,-1.4042966 l 0,-7.7265625 c 0,-0.7782381 -0.626078,-1.4042969 -1.404297,-1.4042969 l -11.2382815,0 z"
         id="rect2848-6-46" />
      <path
         style="fill:#000000;fill-opacity:0.39215686;stroke:none"
         d="M 8.6484375,0 C 7.5168173,0 6.5429688,0.97577371 6.5429688,2.1074219 l 0,5.1425781 -4.4355469,0 C 0.97577382,7.25 0,8.2257738 0,9.3574219 l 0,7.7265621 c 0,1.131648 0.97577382,2.107422 2.1074219,2.107422 l 4.2578125,-0.04492 0,0.08789 -0.7460938,0 c -0.742529,0 -1.4042969,0.618799 -1.4042968,1.361328 C 4.2148438,21.338231 4.8766116,22 5.6191406,22 l 4.2148438,0 c 0.7425286,0 1.4042966,-0.661768 1.4042966,-1.404297 0,-0.742529 -0.661768,-1.361328 -1.4042966,-1.361328 l -0.7460938,0 0,-0.08789 4.2578124,0.04492 c 1.131648,0 2.107422,-0.975774 2.107422,-2.107422 l 0,-2.333984 0.921875,0 c 0.742511,0 1.404297,-0.661768 1.404297,-1.404297 0,-0.742529 -0.661786,-1.361328 -1.404297,-1.361328 l -0.746094,0 0,-0.08789 4.257813,0.04492 c 1.13162,0 2.107422,-0.975774 2.107422,-2.1074216 l 0,-7.7265625 C 21.994141,0.97577372 21.018339,0 19.886719,0 L 8.6484375,0 Z m 0,0.703125 11.2382815,0 c 0.778219,0 1.404297,0.6260588 1.404297,1.4042969 l 0,7.7265625 c 0,0.7782376 -0.626078,1.4042966 -1.404297,1.4042966 l -4.433594,0 0,-1.4042966 4.433594,0 0,-7.7265625 -11.2382815,0 0,5.1425781 -1.4042969,0 0,-5.1425781 c 0,-0.7782381 0.626078,-1.4042969 1.4042969,-1.4042969 z m 0.703125,2.1054688 9.8320315,0 0,6.3222656 -3.75586,0 C 15.30742,8.0996115 14.40028,7.25 13.345703,7.25 l -3.9941405,0 0,-4.4414062 z m -7.2441406,5.1445312 11.2382811,0 c 0.778238,0 1.404297,0.6260588 1.404297,1.4042969 l 0,7.7265621 c 0,0.778238 -0.626059,1.404297 -1.404297,1.404297 l -4.9179686,0 0,1.404297 1.40625,0 c 0.3891186,0 0.7011716,0.314006 0.7011716,0.703125 0,0.389119 -0.312053,0.701172 -0.7011716,0.701172 l -4.2148438,0 c -0.389119,0 -0.703125,-0.312053 -0.703125,-0.701172 0,-0.389119 0.314006,-0.703125 0.703125,-0.703125 l 1.4042969,0 0,-1.404297 -4.9160156,0 c -0.778238,0 -1.4042969,-0.626059 -1.4042969,-1.404297 l 0,-7.7265621 c 0,-0.7782381 0.6260589,-1.4042969 1.4042969,-1.4042969 z m 0,1.4042969 0,7.7265621 11.2382811,0 0,-7.7265621 -11.2382811,0 z m 0.7011719,0.7011721 9.8339842,0 0,6.322265 -9.8339842,0 0,-6.322265 z m 12.6445312,2.583984 0.921875,0 c 0.389109,0 0.703125,0.314006 0.703125,0.703125 0,0.389119 -0.314016,0.701172 -0.703125,0.701172 l -0.921875,0 0,-1.404297 z"
         id="path4780" />
      <path
         style="fill:#ffffff;fill-opacity:1;stroke:none"
         d="m 19.184546,2.8095238 -0.702364,0 -0.983309,0 0,0.702381 0.983309,0 0,0.9833333 0.702364,0 0,-0.9833333 0,-0.702381 z"
         id="path4623-6-5" />
      <path
         style="fill:#ffffff;fill-opacity:0.7103825;stroke:none"
         d="m 10.755859,7.0234375 0,0.2265625 0.703125,0 0,-0.2265625 -0.703125,0 z"
         id="rect4649-3-6" />
      <rect
         y="4.2142859"
         x="17.077456"
         height="0.70238096"
         width="0.70236337"
         id="rect4651-5-94"
         style="fill:#ffffff;fill-opacity:0.7103825;stroke:none" />
      <rect
         style="fill:#ffffff;fill-opacity:0.7103825;stroke:none"
         id="rect4655-3-4"
         width="0.70236337"
         height="0.70238096"
         x="17.779818"
         y="3.5119047" />
      <rect
         style="opacity:0.48837208;fill:#ffffff;fill-opacity:1;stroke:none"
         id="rect4673-9-17"
         width="11.237818"
         height="0.70238096"
         x="8.6490908"
         y="0.70238101" />
      <path
         style="opacity:0.48837208;fill:#ffffff;fill-opacity:1;stroke:none"
         d="m 15.453125,10.535156 4.433594,0 0,-0.7011716 -4.433594,0 0,0"
         id="path4880" />
      <path
         style="opacity:0.48837208;fill:#ffffff;fill-opacity:1;stroke:none"
         d="m 15.453125,13.345703 0.921875,0 0,-0.703125 -0.921875,0 0,0.703125 z"
         id="path4920" />
      <rect
         style="fill:#000000;fill-opacity:0.15846994;stroke:none"
         id="rect4679-9-9"
         width="9.833333"
         height="6.3214288"
         x="2.8095238"
         y="10.059524" />
      <path
         style="fill:url(#linearGradient5006);fill-opacity:1;stroke:none"
         d="m 2.1071428,7.952381 c -0.778238,0 -1.40476185,0.6265238 -1.40476185,1.4047619 l 0,7.7261901 c 0,0.778238 0.62652385,1.404762 1.40476185,1.404762 l 4.9166667,0 0,1.404762 -1.4047619,0 c -0.389119,0 -0.702381,0.313262 -0.702381,0.702381 0,0.389119 0.313262,0.702381 0.702381,0.702381 l 4.2142857,0 c 0.3891187,0 0.7023807,-0.313262 0.7023807,-0.702381 0,-0.389119 -0.313262,-0.702381 -0.7023807,-0.702381 l -1.4047619,0 0,-1.404762 4.9166666,0 c 0.778238,0 1.404762,-0.626524 1.404762,-1.404762 l 0,-7.7261901 C 14.75,8.5789048 14.123476,7.952381 13.345238,7.952381 l -11.2380952,0 z m 0,1.4047619 11.2380952,0 0,7.7261901 -11.2380952,0 0,-7.7261901 z"
         id="rect2848-6-43" />
      <path
         id="path4621-8-1"
         d="m 2.8095238,16.380952 0,-0.702381 0,-0.983333 0.702381,0 0,0.983333 0.9833333,0 0,0.702381 -0.9833333,0 -0.702381,0 z"
         style="fill:#ffffff;fill-opacity:1;stroke:none" />
      <path
         style="fill:#ffffff;fill-opacity:1;stroke:none"
         d="m 12.642857,10.059524 -0.702381,0 -0.983333,0 0,0.702381 0.983333,0 0,0.983333 0.702381,0 0,-0.983333 0,-0.702381 z"
         id="path4623-6-2" />
      <rect
         y="14.273809"
         x="4.2142859"
         height="0.70238096"
         width="0.70238072"
         id="rect4649-3-65"
         style="fill:#ffffff;fill-opacity:0.7103825;stroke:none" />
      <rect
         y="11.464286"
         x="10.535714"
         height="0.70238096"
         width="0.70238072"
         id="rect4651-5-8"
         style="fill:#ffffff;fill-opacity:0.7103825;stroke:none" />
      <rect
         style="fill:#ffffff;fill-opacity:0.7103825;stroke:none"
         id="rect4655-3-1"
         width="0.70238072"
         height="0.70238096"
         x="11.238095"
         y="10.761905" />
      <rect
         style="fill:#ffffff;fill-opacity:0.7103825;stroke:none"
         id="rect4659-5-85"
         width="0.70238072"
         height="0.70238096"
         x="3.5119047"
         y="14.976191" />
      <rect
         style="opacity:0.48837208;fill:#ffffff;fill-opacity:1;stroke:none"
         id="rect4673-9-8"
         width="11.238095"
         height="0.70238096"
         x="2.1071429"
         y="7.9523811" />
      <rect
         y="17.083334"
         x="2.1071429"
         height="0.70238096"
         width="11.238095"
         id="rect2900-2-8"
         style="opacity:0.48837208;fill:#ffffff;fill-opacity:1;stroke:none" />
      <rect
         style="opacity:0.48837208;fill:#ffffff;fill-opacity:1;stroke:none"
         id="rect4677-6-8"
         width="4.2142859"
         height="0.70238096"
         x="5.6190476"
         y="19.892857" />
    </g>
    <g
       transform="matrix(-0.10382065,0,0,0.10382065,23.548023,10.301976)"
       id="g4414">
      <g
         transform="translate(214.92589,-100.31048)"
         id="g7980" />
      <g
         transform="translate(214.92589,-100.31048)"
         id="g7982" />
      <path
         d="m 36.38397,16.014487 c -1.015554,0.0081 -1.987832,0.412338 -2.709842,1.126563 L 17.141042,33.674136 c -1.521389,1.522007 -1.521384,3.989015 -4e-6,5.511024 L 41.925447,64.000017 17.141043,88.814869 c -1.521385,1.522003 -1.521385,3.989016 0,5.511019 l 16.533086,16.533082 c 1.522004,1.52139 3.989016,1.52139 5.511029,1e-5 L 64.000009,86.074579 88.814857,110.85898 c 1.522012,1.52138 3.989019,1.52138 5.511025,-1e-5 L 110.85897,94.325889 c 1.52138,-1.522005 1.52138,-3.989012 0,-5.511024 L 86.074572,64.000017 110.85898,39.185165 c 1.52137,-1.522014 1.52137,-3.989022 -1e-5,-5.511033 L 94.325885,17.141047 c -1.522009,-1.521381 -3.989017,-1.521385 -5.511024,4e-6 L 64.000009,41.925455 39.185152,17.141046 C 38.440691,16.404445 37.431131,15.998429 36.38397,16.014487 Z m 30.386773,61.778321 c -0.732115,-0.739963 -1.7298,-1.156336 -2.770734,-1.156336 -1.040934,10e-7 -2.038624,0.416372 -2.770738,1.15634 l 5.541472,-4e-6 z"
         style="fill:url(#linearGradient3292);fill-opacity:1;stroke:none"
         id="path3300-7" />
      <path
         d="M -62.57895,106.7868 -36.415999,79.916739 -10.606602,106.43324 -36.415999,66.128157 -62.57895,106.7868 Z"
         transform="matrix(0.9743255,0,0,0.9743255,99.290143,5.5404808)"
         style="fill:#000000;fill-opacity:1;fill-rule:evenodd;stroke:#000000;stroke-width:0.7451762px;stroke-linecap:butt;stroke-linejoin:miter;stroke-opacity:1;filter:url(#filter3549)"
         clip-path="url(#clipPath3559)"
         id="path7985" />
      <path
         d="m 31.7,16 2.875,-3.375 C 33.523795,10.929242 30.639864,10.336982 28.6375,12.3125 L 31.45,15.6875 31.7,16 Z"
         transform="matrix(0,1.8163775,-1.8163775,0,130.55195,34.179955)"
         style="opacity:0.49812736;fill:url(#linearGradient3294);fill-opacity:1;fill-rule:evenodd;stroke:none;filter:url(#filter3477)"
         id="path5159" />
      <path
         d="m 31.7,16 2.875,-3.375 C 33.523795,10.929242 30.639864,10.336982 28.6375,12.3125 L 31.45,15.6875 31.7,16 Z"
         transform="matrix(1.7938181,0,0,-1.7938181,-20.276758,130.94405)"
         style="opacity:0.79026214;fill:url(#linearGradient3296);fill-opacity:1;fill-rule:evenodd;stroke:none;filter:url(#filter3477)"
         id="path3485" />
      <path
         d="m 31.7,16 2.875,-3.375 C 33.523795,10.929242 30.639864,10.336982 28.6375,12.3125 L 31.45,15.6875 31.7,16 Z"
         transform="matrix(0,1.6448195,1.6448195,0,-0.724353,39.584706)"
         style="opacity:0.49812736;fill:url(#linearGradient3298);fill-opacity:1;fill-rule:evenodd;stroke:none;filter:url(#filter3477)"
         id="path3493" />
      <path
         d="M 91.558091,23.43728 64.000006,50.995365 36.441924,23.437284 23.437276,36.441932 50.995358,64.000013 23.437269,91.558102 36.441924,104.56274 64.000004,77.00466 91.558088,104.56274 104.56273,91.558096 77.004652,64.000012 104.56273,36.441929 91.558091,23.43728 Z"
         style="opacity:0.92134836;fill:url(#linearGradient3301);fill-opacity:1;stroke:none"
         id="rect2323" />
      <path
         d="m 88.7,16 2.875,-3.375 C 90.523795,10.929242 87.639864,10.336982 85.6375,12.3125 L 88.45,15.6875 88.7,16 Z"
         transform="matrix(1.6448195,0,0,-1.6448195,-53.800876,129.5366)"
         style="opacity:0.79026214;fill:url(#linearGradient3304);fill-opacity:1;fill-rule:evenodd;stroke:none;filter:url(#filter3477)"
         id="path3487" />
      <path
         d="M -62.57895,106.7868 -36.415999,79.916739 -10.606602,106.43324 -36.415999,66.128157 -62.57895,106.7868 Z"
         transform="matrix(0.9743255,0,0,-0.9743255,99.290147,122.00005)"
         style="fill:url(#radialGradient8067);fill-opacity:1;fill-rule:evenodd;stroke:none;filter:url(#filter3549)"
         clip-path="url(#clipPath3559)"
         id="path3565" />
      <path
         d="m 31.7,16 2.875,-3.375 C 33.523795,10.929242 30.639864,10.336982 28.6375,12.3125 L 31.45,15.6875 31.7,16 Z"
         transform="matrix(1.4958209,0,0,1.4958209,-10.888668,0.6143956)"
         style="opacity:0.79026214;fill:url(#linearGradient3310);fill-opacity:1;fill-rule:evenodd;stroke:none;filter:url(#filter3477)"
         id="path7993" />
      <path
         d="m 88.7,16 2.875,-3.375 C 90.523795,10.929242 87.639864,10.336982 85.6375,12.3125 L 88.45,15.6875 88.7,16 Z"
         transform="matrix(1.5356935,0,0,1.5356935,-44.142789,0.2377555)"
         style="opacity:0.79026214;fill:url(#linearGradient3312);fill-opacity:1;fill-rule:evenodd;stroke:none;filter:url(#filter3477)"
         id="path3481" />
      <path
         d="M 88.284271,18.368396 60,46.652666 31.715729,18.368396 18.368396,31.715729 46.652666,60 18.368396,88.284271 31.715729,101.63161 60,73.347334 88.284271,101.63161 101.63161,88.284271 73.347334,60 101.63161,31.715729 88.284271,18.368396 Z"
         transform="matrix(0.9743255,0,0,0.9743255,5.5404775,5.5404852)"
         style="opacity:0.92134836;fill:none;stroke:url(#linearGradient3314);stroke-width:2.3235724;stroke-linecap:round;stroke-linejoin:round;stroke-miterlimit:4;stroke-dasharray:none;stroke-dashoffset:1.08780003;stroke-opacity:1;filter:url(#filter3354)"
         id="path3328" />
      <path
         d="M 36.427153,23.374602 35.696409,24.105346 23.424273,36.377482 36.183569,24.592505 64.001323,50.998249 91.293853,24.592506 102.2263,35.524947 c -0.0956,0.494517 -0.22471,0.974139 -0.36538,1.461486 l -11.845002,13.79366 c -10.682815,5.325801 -25.578562,10.57913 -41.593244,10.59579 l 0.274024,0.274023 c 0.459478,0.0054 0.908174,0.03045 1.370152,0.03046 16.062749,-10e-7 27.107879,-3.307858 37.817731,-8.64714 L 103.62689,37.29091 c 0.0648,-0.224563 0.12493,-0.446354 0.18269,-0.669851 0.0676,-0.261529 0.13113,-0.52498 0.18269,-0.791634 L 91.537438,23.374602 90.806694,24.105347 64.001323,50.998249 36.427153,23.374602 Z"
         style="fill:url(#linearGradient3316);fill-opacity:1;stroke:none"
         id="path3374" />
      <path
         d="m 36.444861,23.441989 -13.002879,13.00288 25.272433,25.272433 c 0.459468,0.0054 0.908166,0.03045 1.370144,0.03045 16.062751,-3e-6 27.107878,-3.307858 37.817731,-8.64714 l 15.74232,-15.742304 c 0.14067,-0.487351 0.26975,-0.966977 0.36537,-1.461494 L 91.555147,23.441989 64.000005,50.997131 36.444861,23.441989 Z"
         style="fill:url(#linearGradient3318);fill-opacity:1;stroke:none"
         id="path5167" />
      <path
         d="m 36.427153,23.374602 -0.730744,0.730744 -12.272136,12.272136 12.759296,-11.784977 27.824156,28.24391 -0.0064,-1.838166 0.0097,1.824011 27.282847,-28.229754 10.932448,10.932441 c -0.0956,0.494517 -0.22471,0.974139 -0.36538,1.461486 l -11.845003,13.79366 c -10.682815,5.325801 -25.578562,10.57913 -41.593244,10.59579 l 0.274024,0.274023 c 0.459478,0.0054 0.908174,0.03045 1.370152,0.03046 16.062749,-10e-7 27.107879,-3.307858 37.817731,-8.64714 L 103.62689,37.29091 c 0.0648,-0.224563 0.12493,-0.446354 0.18269,-0.669851 0.0676,-0.261529 0.13113,-0.52498 0.18269,-0.791634 L 91.537438,23.374602 90.806694,24.105347 64.001323,50.998249 36.427153,23.374602 Z"
         style="fill:url(#linearGradient3605);fill-opacity:1;stroke:none"
         id="path3399" />
    </g>
  </g>
</svg>
