<?xml version="1.0" encoding="UTF-8" standalone="no"?>
<svg
   xmlns:dc="http://purl.org/dc/elements/1.1/"
   xmlns:cc="http://creativecommons.org/ns#"
   xmlns:rdf="http://www.w3.org/1999/02/22-rdf-syntax-ns#"
   xmlns:svg="http://www.w3.org/2000/svg"
   xmlns="http://www.w3.org/2000/svg"
   xmlns:xlink="http://www.w3.org/1999/xlink"
   version="1.1"
   id="svg4268"
   viewBox="0 0 22 22"
   height="22"
   width="22">
  <defs
     id="defs4270">
    <linearGradient
       id="linearGradient4249">
      <stop
         id="stop4251"
         offset="0"
         style="stop-color:#ffffff;stop-opacity:1;" />
      <stop
         style="stop-color:#ffffff;stop-opacity:0.78431374;"
         offset="0.47000003"
         id="stop4253" />
      <stop
         id="stop4255"
         offset="0.75125003"
         style="stop-color:#ffffff;stop-opacity:0.39215687;" />
      <stop
         id="stop4257"
         offset="1"
         style="stop-color:#ffffff;stop-opacity:1;" />
    </linearGradient>
    <linearGradient
       y2="116.5"
       x2="157"
       y1="116.5"
       x1="137"
       gradientTransform="matrix(0.70236364,0,0,0.70238095,-88.979455,-74.452381)"
       gradientUnits="userSpaceOnUse"
       id="linearGradient4651"
       xlink:href="#linearGradient4249" />
    <linearGradient
       y2="116.5"
       x2="157"
       y1="116.5"
       x1="137"
       gradientTransform="matrix(0.70238095,0,0,0.70238095,-95.523809,-67.202381)"
       gradientUnits="userSpaceOnUse"
       id="linearGradient5006"
       xlink:href="#linearGradient4249" />
    <linearGradient
       y2="116.5"
       x2="157"
       y1="116.5"
       x1="137"
       gradientTransform="matrix(0.70236364,0,0,0.70238095,-88.979455,-74.452381)"
       gradientUnits="userSpaceOnUse"
       id="linearGradient5066"
       xlink:href="#linearGradient4249" />
  </defs>
  <metadata
     id="metadata4273">
    <rdf:RDF>
      <cc:Work
         rdf:about="">
        <dc:format>image/svg+xml</dc:format>
        <dc:type
           rdf:resource="http://purl.org/dc/dcmitype/StillImage" />
        <dc:title></dc:title>
      </cc:Work>
    </rdf:RDF>
  </metadata>
  <g
     id="layer1">
    <g
       id="g4189">
      <path
         style="fill:#ffffff;fill-opacity:0.69897964;stroke:none"
         d="m 9.3515625,2.8085938 0,4.4414062 3.9941405,0 c 1.118031,0.00735 1.958838,0.8972794 2.082297,1.8808594 l 3.755594,0 0,-6.3222656 z"
         id="rect4679-9-2" />
      <path
         style="fill:url(#linearGradient5066);fill-opacity:1;stroke:none"
         d="m 15.453125,12.642578 0,1.404297 0.921875,0 c 0.389109,0 0.703125,-0.312053 0.703125,-0.701172 0,-0.389119 -0.314016,-0.703125 -0.703125,-0.703125 l -0.921875,0 z"
         id="path4842" />
      <path
         style="fill:url(#linearGradient4651);fill-opacity:1;stroke:none"
         d="m 8.6484375,0.703125 c -0.7782189,0 -1.4042969,0.6260588 -1.4042969,1.4042969 l 0,5.1425781 1.4042969,0 0,-5.1425781 11.2382815,0 0,7.7265625 -4.433594,0 0,1.4042966 4.433594,0 c 0.778219,0 1.404297,-0.626059 1.404297,-1.4042966 l 0,-7.7265625 c 0,-0.7782381 -0.626078,-1.4042969 -1.404297,-1.4042969 l -11.2382815,0 z"
         id="rect2848-6-46" />
      <path
         style="fill:#000000;fill-opacity:0.39215686;stroke:none"
         d="M 8.6484375,0 C 7.5168173,0 6.5429688,0.97577371 6.5429688,2.1074219 l 0,5.1425781 -4.4355469,0 C 0.97577382,7.25 0,8.2257738 0,9.3574219 l 0,7.7265621 c 0,1.131648 0.97577382,2.107422 2.1074219,2.107422 l 4.2578125,-0.04492 0,0.08789 -0.7460938,0 c -0.742529,0 -1.4042969,0.618799 -1.4042968,1.361328 C 4.2148438,21.338231 4.8766116,22 5.6191406,22 l 4.2148438,0 c 0.7425286,0 1.4042966,-0.661768 1.4042966,-1.404297 0,-0.742529 -0.661768,-1.361328 -1.4042966,-1.361328 l -0.7460938,0 0,-0.08789 4.2578124,0.04492 c 1.131648,0 2.107422,-0.975774 2.107422,-2.107422 l 0,-2.333984 0.921875,0 c 0.742511,0 1.404297,-0.661768 1.404297,-1.404297 0,-0.742529 -0.661786,-1.361328 -1.404297,-1.361328 l -0.746094,0 0,-0.08789 4.257813,0.04492 c 1.13162,0 2.107422,-0.975774 2.107422,-2.1074216 l 0,-7.7265625 C 21.994141,0.97577372 21.018339,0 19.886719,0 L 8.6484375,0 Z m 0,0.703125 11.2382815,0 c 0.778219,0 1.404297,0.6260588 1.404297,1.4042969 l 0,7.7265625 c 0,0.7782376 -0.626078,1.4042966 -1.404297,1.4042966 l -4.433594,0 0,-1.4042966 4.433594,0 0,-7.7265625 -11.2382815,0 0,5.1425781 -1.4042969,0 0,-5.1425781 c 0,-0.7782381 0.626078,-1.4042969 1.4042969,-1.4042969 z m 0.703125,2.1054688 9.8320315,0 0,6.3222656 -3.75586,0 C 15.30742,8.0996115 14.40028,7.25 13.345703,7.25 l -3.9941405,0 0,-4.4414062 z m -7.2441406,5.1445312 11.2382811,0 c 0.778238,0 1.404297,0.6260588 1.404297,1.4042969 l 0,7.7265621 c 0,0.778238 -0.626059,1.404297 -1.404297,1.404297 l -4.9179686,0 0,1.404297 1.40625,0 c 0.3891186,0 0.7011716,0.314006 0.7011716,0.703125 0,0.389119 -0.312053,0.701172 -0.7011716,0.701172 l -4.2148438,0 c -0.389119,0 -0.703125,-0.312053 -0.703125,-0.701172 0,-0.389119 0.314006,-0.703125 0.703125,-0.703125 l 1.4042969,0 0,-1.404297 -4.9160156,0 c -0.778238,0 -1.4042969,-0.626059 -1.4042969,-1.404297 l 0,-7.7265621 c 0,-0.7782381 0.6260589,-1.4042969 1.4042969,-1.4042969 z m 0,1.4042969 0,7.7265621 11.2382811,0 0,-7.7265621 -11.2382811,0 z m 0.7011719,0.7011721 9.8339842,0 0,6.322265 -9.8339842,0 0,-6.322265 z m 12.6445312,2.583984 0.921875,0 c 0.389109,0 0.703125,0.314006 0.703125,0.703125 0,0.389119 -0.314016,0.701172 -0.703125,0.701172 l -0.921875,0 0,-1.404297 z"
         id="path4780" />
      <path
         style="fill:#ffffff;fill-opacity:1;stroke:none"
         d="m 19.184546,2.8095238 -0.702364,0 -0.983309,0 0,0.702381 0.983309,0 0,0.9833333 0.702364,0 0,-0.9833333 0,-0.702381 z"
         id="path4623-6-5" />
      <path
         style="fill:#ffffff;fill-opacity:0.7103825;stroke:none"
         d="m 10.755859,7.0234375 0,0.2265625 0.703125,0 0,-0.2265625 -0.703125,0 z"
         id="rect4649-3-6" />
      <rect
         y="4.2142859"
         x="17.077456"
         height="0.70238096"
         width="0.70236337"
         id="rect4651-5-94"
         style="fill:#ffffff;fill-opacity:0.7103825;stroke:none" />
      <rect
         style="fill:#ffffff;fill-opacity:0.7103825;stroke:none"
         id="rect4655-3-4"
         width="0.70236337"
         height="0.70238096"
         x="17.779818"
         y="3.5119047" />
      <rect
         style="opacity:0.48837208;fill:#ffffff;fill-opacity:1;stroke:none"
         id="rect4673-9-17"
         width="11.237818"
         height="0.70238096"
         x="8.6490908"
         y="0.70238101" />
      <path
         style="opacity:0.48837208;fill:#ffffff;fill-opacity:1;stroke:none"
         d="m 15.453125,10.535156 4.433594,0 0,-0.7011716 -4.433594,0 0,0"
         id="path4880" />
      <path
         style="opacity:0.48837208;fill:#ffffff;fill-opacity:1;stroke:none"
         d="m 15.453125,13.345703 0.921875,0 0,-0.703125 -0.921875,0 0,0.703125 z"
         id="path4920" />
      <rect
         style="fill:#ffffff;fill-opacity:0.69897964;stroke:none"
         id="rect4679-9-9"
         width="9.833333"
         height="6.3214288"
         x="2.8095238"
         y="10.059524" />
      <path
         style="fill:url(#linearGradient5006);fill-opacity:1;stroke:none"
         d="m 2.1071428,7.952381 c -0.778238,0 -1.40476185,0.6265238 -1.40476185,1.4047619 l 0,7.7261901 c 0,0.778238 0.62652385,1.404762 1.40476185,1.404762 l 4.9166667,0 0,1.404762 -1.4047619,0 c -0.389119,0 -0.702381,0.313262 -0.702381,0.702381 0,0.389119 0.313262,0.702381 0.702381,0.702381 l 4.2142857,0 c 0.3891187,0 0.7023807,-0.313262 0.7023807,-0.702381 0,-0.389119 -0.313262,-0.702381 -0.7023807,-0.702381 l -1.4047619,0 0,-1.404762 4.9166666,0 c 0.778238,0 1.404762,-0.626524 1.404762,-1.404762 l 0,-7.7261901 C 14.75,8.5789048 14.123476,7.952381 13.345238,7.952381 l -11.2380952,0 z m 0,1.4047619 11.2380952,0 0,7.7261901 -11.2380952,0 0,-7.7261901 z"
         id="rect2848-6-43" />
      <path
         id="path4621-8-1"
         d="m 2.8095238,16.380952 0,-0.702381 0,-0.983333 0.702381,0 0,0.983333 0.9833333,0 0,0.702381 -0.9833333,0 -0.702381,0 z"
         style="fill:#ffffff;fill-opacity:1;stroke:none" />
      <path
         style="fill:#ffffff;fill-opacity:1;stroke:none"
         d="m 12.642857,10.059524 -0.702381,0 -0.983333,0 0,0.702381 0.983333,0 0,0.983333 0.702381,0 0,-0.983333 0,-0.702381 z"
         id="path4623-6-2" />
      <rect
         y="14.273809"
         x="4.2142859"
         height="0.70238096"
         width="0.70238072"
         id="rect4649-3-65"
         style="fill:#ffffff;fill-opacity:0.7103825;stroke:none" />
      <rect
         y="11.464286"
         x="10.535714"
         height="0.70238096"
         width="0.70238072"
         id="rect4651-5-8"
         style="fill:#ffffff;fill-opacity:0.7103825;stroke:none" />
      <rect
         style="fill:#ffffff;fill-opacity:0.7103825;stroke:none"
         id="rect4655-3-1"
         width="0.70238072"
         height="0.70238096"
         x="11.238095"
         y="10.761905" />
      <rect
         style="fill:#ffffff;fill-opacity:0.7103825;stroke:none"
         id="rect4659-5-85"
         width="0.70238072"
         height="0.70238096"
         x="3.5119047"
         y="14.976191" />
      <rect
         style="opacity:0.48837208;fill:#ffffff;fill-opacity:1;stroke:none"
         id="rect4673-9-8"
         width="11.238095"
         height="0.70238096"
         x="2.1071429"
         y="7.9523811" />
      <rect
         y="17.083334"
         x="2.1071429"
         height="0.70238096"
         width="11.238095"
         id="rect2900-2-8"
         style="opacity:0.48837208;fill:#ffffff;fill-opacity:1;stroke:none" />
      <rect
         style="opacity:0.48837208;fill:#ffffff;fill-opacity:1;stroke:none"
         id="rect4677-6-8"
         width="4.2142859"
         height="0.70238096"
         x="5.6190476"
         y="19.892857" />
    </g>
  </g>
</svg>
